<?xml version="1.0" encoding="utf-8" standalone="no"?>
<!DOCTYPE svg PUBLIC "-//W3C//DTD SVG 1.1//EN"
  "http://www.w3.org/Graphics/SVG/1.1/DTD/svg11.dtd">
<svg xmlns:xlink="http://www.w3.org/1999/xlink" width="244.42875pt" height="181.996659pt" viewBox="0 0 244.42875 181.996659" xmlns="http://www.w3.org/2000/svg" version="1.1">
 <metadata>
  <rdf:RDF xmlns:dc="http://purl.org/dc/elements/1.1/" xmlns:cc="http://creativecommons.org/ns#" xmlns:rdf="http://www.w3.org/1999/02/22-rdf-syntax-ns#">
   <cc:Work>
    <dc:type rdf:resource="http://purl.org/dc/dcmitype/StillImage"/>
    <dc:date>2025-07-30T20:53:51.184892</dc:date>
    <dc:format>image/svg+xml</dc:format>
    <dc:creator>
     <cc:Agent>
      <dc:title>Matplotlib v3.9.1.post1, https://matplotlib.org/</dc:title>
     </cc:Agent>
    </dc:creator>
   </cc:Work>
  </rdf:RDF>
 </metadata>
 <defs>
  <style type="text/css">*{stroke-linejoin: round; stroke-linecap: butt}</style>
 </defs>
 <g id="figure_1">
  <g id="patch_1">
   <path d="M 0 181.996659 
L 244.42875 181.996659 
L 244.42875 0 
L 0 0 
z
" style="fill: #ffffff"/>
  </g>
  <g id="axes_1">
   <g id="patch_2">
    <path d="M 37.55 147.596659 
L 237.22875 147.596659 
L 237.22875 28.187005 
L 37.55 28.187005 
z
" style="fill: #f7f7f7"/>
   </g>
   <g id="PolyCollection_1">
    <defs>
     <path id="m51e69f7def" d="M 46.626307 -39.827727 
L 46.626307 -39.827712 
L 60.542701 -62.92898 
L 85.901076 -62.428083 
L 112.107004 -65.116009 
L 161.976201 -64.174142 
L 228.152443 -80.618186 
L 228.152443 -83.934012 
L 228.152443 -83.934012 
L 161.976201 -66.57903 
L 112.107004 -67.62208 
L 85.901076 -64.773397 
L 60.542701 -65.38822 
L 46.626307 -39.827727 
z
" style="stroke: #2a788e; stroke-opacity: 0.2"/>
    </defs>
    <g clip-path="url(#p732cf96f75)">
     <use xlink:href="#m51e69f7def" x="0" y="181.996659" style="fill: #2a788e; fill-opacity: 0.2; stroke: #2a788e; stroke-opacity: 0.2"/>
    </g>
   </g>
   <g id="PolyCollection_2">
    <defs>
     <path id="m48ba2b72cd" d="M 46.626307 -39.827727 
L 46.626307 -39.827712 
L 60.542701 -51.926885 
L 85.901076 -52.042478 
L 112.107004 -51.700361 
L 161.976201 -52.282414 
L 228.152443 -57.372862 
L 228.152443 -59.676294 
L 228.152443 -59.676294 
L 161.976201 -54.029604 
L 112.107004 -53.412961 
L 85.901076 -53.764363 
L 60.542701 -53.674776 
L 46.626307 -39.827727 
z
" style="stroke: #440154; stroke-opacity: 0.2"/>
    </defs>
    <g clip-path="url(#p732cf96f75)">
     <use xlink:href="#m48ba2b72cd" x="0" y="181.996659" style="fill: #440154; fill-opacity: 0.2; stroke: #440154; stroke-opacity: 0.2"/>
    </g>
   </g>
   <g id="PolyCollection_3">
    <defs>
     <path id="me86fc8337b" d="M 46.626307 -39.827727 
L 46.626307 -39.827712 
L 60.542701 -49.226218 
L 85.901076 -48.951257 
L 112.107004 -49.578209 
L 161.976201 -49.574767 
L 228.152443 -52.510161 
L 228.152443 -54.309491 
L 228.152443 -54.309491 
L 161.976201 -51.058459 
L 112.107004 -51.083242 
L 85.901076 -50.438503 
L 60.542701 -50.714894 
L 46.626307 -39.827727 
z
" style="stroke: #270031; stroke-opacity: 0.2"/>
    </defs>
    <g clip-path="url(#p732cf96f75)">
     <use xlink:href="#me86fc8337b" x="0" y="181.996659" style="fill: #270031; fill-opacity: 0.2; stroke: #270031; stroke-opacity: 0.2"/>
    </g>
   </g>
   <g id="PolyCollection_4">
    <defs>
     <path id="mada1a0e626" d="M 46.626307 -39.827727 
L 46.626307 -39.827712 
L 60.542701 -53.115057 
L 85.901076 -51.328564 
L 112.107004 -52.209862 
L 161.976201 -52.281191 
L 228.152443 -67.13194 
L 228.152443 -69.749967 
L 228.152443 -69.749967 
L 161.976201 -53.60857 
L 112.107004 -53.600022 
L 85.901076 -52.718524 
L 60.542701 -54.70482 
L 46.626307 -39.827727 
z
" style="stroke: #414487; stroke-opacity: 0.2"/>
    </defs>
    <g clip-path="url(#p732cf96f75)">
     <use xlink:href="#mada1a0e626" x="0" y="181.996659" style="fill: #414487; fill-opacity: 0.2; stroke: #414487; stroke-opacity: 0.2"/>
    </g>
   </g>
   <g id="PolyCollection_5">
    <defs>
     <path id="m0398158bb3" d="M 46.626307 -39.827727 
L 46.626307 -39.827712 
L 60.542701 -74.644421 
L 85.901076 -68.52582 
L 112.107004 -73.436262 
L 161.976201 -84.114981 
L 228.152443 -146.227633 
L 228.152443 -148.381942 
L 228.152443 -148.381942 
L 161.976201 -86.795603 
L 112.107004 -75.762154 
L 85.901076 -70.671953 
L 60.542701 -77.083341 
L 46.626307 -39.827727 
z
" style="stroke: #7ad151; stroke-opacity: 0.2"/>
    </defs>
    <g clip-path="url(#p732cf96f75)">
     <use xlink:href="#m0398158bb3" x="0" y="181.996659" style="fill: #7ad151; fill-opacity: 0.2; stroke: #7ad151; stroke-opacity: 0.2"/>
    </g>
   </g>
   <g id="PolyCollection_6">
    <defs>
     <path id="m5006431355" d="M 46.626307 -39.827727 
L 46.626307 -39.827712 
L 60.542701 -70.38397 
L 85.901076 -71.628696 
L 112.107004 -77.254975 
L 161.976201 -87.551076 
L 228.152443 -104.504067 
L 228.152443 -107.847411 
L 228.152443 -107.847411 
L 161.976201 -90.623674 
L 112.107004 -79.966483 
L 85.901076 -74.166567 
L 60.542701 -72.813207 
L 46.626307 -39.827727 
z
" style="stroke: #22a884; stroke-opacity: 0.2"/>
    </defs>
    <g clip-path="url(#p732cf96f75)">
     <use xlink:href="#m5006431355" x="0" y="181.996659" style="fill: #22a884; fill-opacity: 0.2; stroke: #22a884; stroke-opacity: 0.2"/>
    </g>
   </g>
   <g id="matplotlib.axis_1">
    <g id="xtick_1">
     <g id="line2d_1">
      <path d="M 46.626307 147.596659 
L 46.626307 28.187005 
" clip-path="url(#p732cf96f75)" style="fill: none; stroke: #cccccc; stroke-width: 0.6; stroke-linecap: square"/>
     </g>
     <g id="line2d_2">
      <defs>
       <path id="m9de00de3b0" d="M 0 0 
L 0 3.5 
" style="stroke: #000000; stroke-width: 0.8"/>
      </defs>
      <g>
       <use xlink:href="#m9de00de3b0" x="46.626307" y="147.596659" style="stroke: #000000; stroke-width: 0.8"/>
      </g>
     </g>
     <g id="text_1">
      <!-- 0 -->
      <g transform="translate(44.376307 160.743378) scale(0.09 -0.09)">
       <defs>
        <path id="STIXGeneral-Regular-30" d="M 3046 2112 
Q 3046 1683 2963 1302 
Q 2880 922 2717 602 
Q 2554 282 2266 96 
Q 1978 -90 1600 -90 
Q 1210 -90 915 108 
Q 621 307 461 640 
Q 301 973 227 1350 
Q 154 1728 154 2150 
Q 154 2746 301 3222 
Q 448 3699 790 4012 
Q 1133 4326 1626 4326 
Q 2253 4326 2649 3712 
Q 3046 3098 3046 2112 
z
M 2432 2080 
Q 2432 3091 2217 3625 
Q 2003 4160 1587 4160 
Q 1190 4160 979 3622 
Q 768 3085 768 2106 
Q 768 1120 979 598 
Q 1190 77 1600 77 
Q 2003 77 2217 598 
Q 2432 1120 2432 2080 
z
" transform="scale(0.015625)"/>
       </defs>
       <use xlink:href="#STIXGeneral-Regular-30"/>
      </g>
     </g>
    </g>
    <g id="xtick_2">
     <g id="line2d_3">
      <path d="M 60.542701 147.596659 
L 60.542701 28.187005 
" clip-path="url(#p732cf96f75)" style="fill: none; stroke: #cccccc; stroke-width: 0.6; stroke-linecap: square"/>
     </g>
     <g id="line2d_4">
      <g>
       <use xlink:href="#m9de00de3b0" x="60.542701" y="147.596659" style="stroke: #000000; stroke-width: 0.8"/>
      </g>
     </g>
     <g id="text_2">
      <!-- 500 -->
      <g transform="translate(53.792701 160.743378) scale(0.09 -0.09)">
       <defs>
        <path id="STIXGeneral-Regular-35" d="M 2803 4358 
L 2573 3814 
Q 2534 3731 2400 3731 
L 1158 3731 
L 902 3187 
Q 1606 3053 1920 2896 
Q 2234 2739 2502 2368 
Q 2726 2061 2726 1555 
Q 2726 1094 2576 780 
Q 2426 467 2099 224 
Q 1664 -90 1011 -90 
Q 646 -90 422 19 
Q 198 128 198 307 
Q 198 550 486 550 
Q 717 550 960 352 
Q 1210 147 1414 147 
Q 1747 147 2012 480 
Q 2278 813 2278 1229 
Q 2278 1843 1850 2189 
Q 1293 2637 486 2637 
Q 410 2637 410 2688 
L 416 2720 
L 1114 4237 
L 2438 4237 
Q 2547 4237 2608 4269 
Q 2669 4301 2746 4403 
L 2803 4358 
z
" transform="scale(0.015625)"/>
       </defs>
       <use xlink:href="#STIXGeneral-Regular-35"/>
       <use xlink:href="#STIXGeneral-Regular-30" x="49.999985"/>
       <use xlink:href="#STIXGeneral-Regular-30" x="99.999969"/>
      </g>
     </g>
    </g>
    <g id="xtick_3">
     <g id="line2d_5">
      <path d="M 85.901076 147.596659 
L 85.901076 28.187005 
" clip-path="url(#p732cf96f75)" style="fill: none; stroke: #cccccc; stroke-width: 0.6; stroke-linecap: square"/>
     </g>
     <g id="line2d_6">
      <g>
       <use xlink:href="#m9de00de3b0" x="85.901076" y="147.596659" style="stroke: #000000; stroke-width: 0.8"/>
      </g>
     </g>
     <g id="text_3">
      <!-- 1K -->
      <g transform="translate(80.401936 160.743378) scale(0.09 -0.09)">
       <defs>
        <path id="STIXGeneral-Regular-31" d="M 2522 0 
L 755 0 
L 755 96 
Q 1107 115 1235 227 
Q 1363 339 1363 608 
L 1363 3482 
Q 1363 3795 1171 3795 
Q 1082 3795 883 3718 
L 710 3654 
L 710 3744 
L 1856 4326 
L 1914 4307 
L 1914 486 
Q 1914 275 2042 185 
Q 2170 96 2522 96 
L 2522 0 
z
" transform="scale(0.015625)"/>
        <path id="STIXGeneral-Regular-4b" d="M 4627 0 
L 2688 0 
L 2688 122 
L 2861 128 
Q 3130 134 3130 282 
Q 3130 397 2922 643 
Q 2714 890 2253 1370 
L 1613 2029 
L 1446 1894 
L 1446 710 
Q 1446 352 1548 253 
Q 1651 154 2016 122 
L 2016 0 
L 211 0 
L 211 122 
Q 589 141 691 262 
Q 794 384 794 800 
L 794 3514 
Q 794 3872 691 3981 
Q 589 4090 218 4115 
L 218 4237 
L 2022 4237 
L 2022 4115 
Q 1632 4090 1539 3987 
Q 1446 3885 1446 3507 
L 1446 2227 
L 2586 3277 
Q 2861 3533 2973 3667 
Q 3085 3802 3085 3910 
Q 3085 4013 3030 4057 
Q 2976 4102 2822 4109 
L 2662 4115 
L 2662 4237 
L 4320 4237 
L 4320 4115 
Q 3994 4090 3824 4003 
Q 3654 3917 3322 3597 
L 2131 2458 
L 3629 819 
Q 4026 384 4214 253 
Q 4403 122 4627 122 
L 4627 0 
z
" transform="scale(0.015625)"/>
       </defs>
       <use xlink:href="#STIXGeneral-Regular-31"/>
       <use xlink:href="#STIXGeneral-Regular-4b" x="49.999985"/>
      </g>
     </g>
    </g>
    <g id="xtick_4">
     <g id="line2d_7">
      <path d="M 112.107004 147.596659 
L 112.107004 28.187005 
" clip-path="url(#p732cf96f75)" style="fill: none; stroke: #cccccc; stroke-width: 0.6; stroke-linecap: square"/>
     </g>
     <g id="line2d_8">
      <g>
       <use xlink:href="#m9de00de3b0" x="112.107004" y="147.596659" style="stroke: #000000; stroke-width: 0.8"/>
      </g>
     </g>
     <g id="text_4">
      <!-- 5K -->
      <g transform="translate(106.607864 160.743378) scale(0.09 -0.09)">
       <use xlink:href="#STIXGeneral-Regular-35"/>
       <use xlink:href="#STIXGeneral-Regular-4b" x="49.999985"/>
      </g>
     </g>
    </g>
    <g id="xtick_5">
     <g id="line2d_9">
      <path d="M 161.976201 147.596659 
L 161.976201 28.187005 
" clip-path="url(#p732cf96f75)" style="fill: none; stroke: #cccccc; stroke-width: 0.6; stroke-linecap: square"/>
     </g>
     <g id="line2d_10">
      <g>
       <use xlink:href="#m9de00de3b0" x="161.976201" y="147.596659" style="stroke: #000000; stroke-width: 0.8"/>
      </g>
     </g>
     <g id="text_5">
      <!-- 10K -->
      <g transform="translate(154.227061 160.743378) scale(0.09 -0.09)">
       <use xlink:href="#STIXGeneral-Regular-31"/>
       <use xlink:href="#STIXGeneral-Regular-30" x="49.999985"/>
       <use xlink:href="#STIXGeneral-Regular-4b" x="99.999969"/>
      </g>
     </g>
    </g>
    <g id="xtick_6">
     <g id="line2d_11">
      <path d="M 228.152443 147.596659 
L 228.152443 28.187005 
" clip-path="url(#p732cf96f75)" style="fill: none; stroke: #cccccc; stroke-width: 0.6; stroke-linecap: square"/>
     </g>
     <g id="line2d_12">
      <g>
       <use xlink:href="#m9de00de3b0" x="228.152443" y="147.596659" style="stroke: #000000; stroke-width: 0.8"/>
      </g>
     </g>
     <g id="text_6">
      <!-- 50K -->
      <g transform="translate(220.403303 160.743378) scale(0.09 -0.09)">
       <use xlink:href="#STIXGeneral-Regular-35"/>
       <use xlink:href="#STIXGeneral-Regular-30" x="49.999985"/>
       <use xlink:href="#STIXGeneral-Regular-4b" x="99.999969"/>
      </g>
     </g>
    </g>
    <g id="xtick_7">
     <g id="line2d_13">
      <defs>
       <path id="ma190e683e3" d="M 0 0 
L 0 2 
" style="stroke: #000000; stroke-width: 0.6"/>
      </defs>
      <g>
       <use xlink:href="#ma190e683e3" x="40.986796" y="147.596659" style="stroke: #000000; stroke-width: 0.6"/>
      </g>
     </g>
    </g>
    <g id="xtick_8">
     <g id="line2d_14">
      <g>
       <use xlink:href="#ma190e683e3" x="51.511473" y="147.596659" style="stroke: #000000; stroke-width: 0.6"/>
      </g>
     </g>
    </g>
    <g id="xtick_9">
     <g id="line2d_15">
      <g>
       <use xlink:href="#ma190e683e3" x="59.675046" y="147.596659" style="stroke: #000000; stroke-width: 0.6"/>
      </g>
     </g>
    </g>
    <g id="xtick_10">
     <g id="line2d_16">
      <g>
       <use xlink:href="#ma190e683e3" x="66.345171" y="147.596659" style="stroke: #000000; stroke-width: 0.6"/>
      </g>
     </g>
    </g>
    <g id="xtick_11">
     <g id="line2d_17">
      <g>
       <use xlink:href="#ma190e683e3" x="71.984682" y="147.596659" style="stroke: #000000; stroke-width: 0.6"/>
      </g>
     </g>
    </g>
    <g id="xtick_12">
     <g id="line2d_18">
      <g>
       <use xlink:href="#ma190e683e3" x="76.869848" y="147.596659" style="stroke: #000000; stroke-width: 0.6"/>
      </g>
     </g>
    </g>
    <g id="xtick_13">
     <g id="line2d_19">
      <g>
       <use xlink:href="#ma190e683e3" x="81.17887" y="147.596659" style="stroke: #000000; stroke-width: 0.6"/>
      </g>
     </g>
    </g>
    <g id="xtick_14">
     <g id="line2d_20">
      <g>
       <use xlink:href="#ma190e683e3" x="110.391796" y="147.596659" style="stroke: #000000; stroke-width: 0.6"/>
      </g>
     </g>
    </g>
    <g id="xtick_15">
     <g id="line2d_21">
      <g>
       <use xlink:href="#ma190e683e3" x="125.225495" y="147.596659" style="stroke: #000000; stroke-width: 0.6"/>
      </g>
     </g>
    </g>
    <g id="xtick_16">
     <g id="line2d_22">
      <g>
       <use xlink:href="#ma190e683e3" x="135.750171" y="147.596659" style="stroke: #000000; stroke-width: 0.6"/>
      </g>
     </g>
    </g>
    <g id="xtick_17">
     <g id="line2d_23">
      <g>
       <use xlink:href="#ma190e683e3" x="143.913745" y="147.596659" style="stroke: #000000; stroke-width: 0.6"/>
      </g>
     </g>
    </g>
    <g id="xtick_18">
     <g id="line2d_24">
      <g>
       <use xlink:href="#ma190e683e3" x="150.58387" y="147.596659" style="stroke: #000000; stroke-width: 0.6"/>
      </g>
     </g>
    </g>
    <g id="xtick_19">
     <g id="line2d_25">
      <g>
       <use xlink:href="#ma190e683e3" x="156.22338" y="147.596659" style="stroke: #000000; stroke-width: 0.6"/>
      </g>
     </g>
    </g>
    <g id="xtick_20">
     <g id="line2d_26">
      <g>
       <use xlink:href="#ma190e683e3" x="161.108546" y="147.596659" style="stroke: #000000; stroke-width: 0.6"/>
      </g>
     </g>
    </g>
    <g id="xtick_21">
     <g id="line2d_27">
      <g>
       <use xlink:href="#ma190e683e3" x="165.417568" y="147.596659" style="stroke: #000000; stroke-width: 0.6"/>
      </g>
     </g>
    </g>
    <g id="xtick_22">
     <g id="line2d_28">
      <g>
       <use xlink:href="#ma190e683e3" x="194.630495" y="147.596659" style="stroke: #000000; stroke-width: 0.6"/>
      </g>
     </g>
    </g>
    <g id="xtick_23">
     <g id="line2d_29">
      <g>
       <use xlink:href="#ma190e683e3" x="209.464193" y="147.596659" style="stroke: #000000; stroke-width: 0.6"/>
      </g>
     </g>
    </g>
    <g id="xtick_24">
     <g id="line2d_30">
      <g>
       <use xlink:href="#ma190e683e3" x="219.98887" y="147.596659" style="stroke: #000000; stroke-width: 0.6"/>
      </g>
     </g>
    </g>
    <g id="xtick_25">
     <g id="line2d_31">
      <g>
       <use xlink:href="#ma190e683e3" x="234.822568" y="147.596659" style="stroke: #000000; stroke-width: 0.6"/>
      </g>
     </g>
    </g>
    <g id="text_7">
     <!-- Facts Memorized (≥95% Recall) -->
     <g transform="translate(78.329688 172.843378) scale(0.09 -0.09)">
      <defs>
       <path id="STIXGeneral-Regular-46" d="M 3494 3322 
L 3334 3322 
Q 3264 3757 3094 3875 
Q 2925 3994 2349 3994 
L 1504 3994 
Q 1370 3994 1328 3946 
Q 1286 3898 1286 3744 
L 1286 2355 
L 2195 2355 
Q 2598 2355 2736 2470 
Q 2874 2586 2918 2963 
L 3066 2963 
L 3066 1472 
L 2918 1472 
Q 2880 1862 2745 1977 
Q 2611 2093 2195 2093 
L 1286 2093 
L 1286 717 
Q 1286 352 1392 246 
Q 1498 141 1869 122 
L 1869 0 
L 70 0 
L 70 122 
Q 435 147 534 259 
Q 634 371 634 787 
L 634 3526 
Q 634 3878 538 3984 
Q 442 4090 77 4115 
L 77 4237 
L 3462 4237 
L 3494 3322 
z
" transform="scale(0.015625)"/>
       <path id="STIXGeneral-Regular-61" d="M 2829 422 
L 2829 243 
Q 2586 -64 2253 -64 
Q 1888 -64 1843 403 
L 1837 403 
Q 1427 -64 909 -64 
Q 608 -64 422 112 
Q 237 288 237 602 
Q 237 1050 685 1350 
Q 992 1555 1837 1869 
L 1837 2214 
Q 1837 2502 1699 2646 
Q 1562 2790 1338 2790 
Q 1146 2790 1018 2697 
Q 890 2605 890 2477 
Q 890 2419 909 2348 
Q 928 2278 928 2208 
Q 928 2112 841 2029 
Q 755 1946 634 1946 
Q 525 1946 441 2029 
Q 358 2112 358 2240 
Q 358 2547 685 2752 
Q 986 2944 1421 2944 
Q 1939 2944 2176 2656 
Q 2291 2522 2323 2384 
Q 2355 2246 2355 1946 
L 2355 723 
Q 2355 301 2554 301 
Q 2682 301 2829 422 
z
M 1837 813 
L 1837 1715 
Q 1248 1510 1018 1293 
Q 800 1094 800 800 
Q 800 557 921 432 
Q 1043 307 1242 307 
Q 1453 307 1613 410 
Q 1747 506 1792 589 
Q 1837 672 1837 813 
z
" transform="scale(0.015625)"/>
       <path id="STIXGeneral-Regular-63" d="M 2547 998 
L 2637 941 
Q 2362 403 2112 205 
Q 1786 -64 1376 -64 
Q 845 -64 502 336 
Q 160 736 160 1357 
Q 160 2170 698 2618 
Q 1094 2944 1562 2944 
Q 1965 2944 2256 2749 
Q 2547 2554 2547 2285 
Q 2547 2176 2457 2096 
Q 2368 2016 2246 2016 
Q 2022 2016 1939 2310 
L 1901 2451 
Q 1850 2630 1773 2694 
Q 1696 2758 1523 2758 
Q 1133 2758 893 2451 
Q 653 2144 653 1645 
Q 653 1094 928 745 
Q 1203 397 1645 397 
Q 1920 397 2118 528 
Q 2317 659 2547 998 
z
" transform="scale(0.015625)"/>
       <path id="STIXGeneral-Regular-74" d="M 1702 493 
L 1786 422 
Q 1478 -64 1011 -64 
Q 448 -64 448 749 
L 448 2675 
L 109 2675 
Q 83 2694 83 2720 
Q 83 2771 192 2842 
Q 435 2982 813 3526 
Q 826 3546 874 3606 
Q 922 3667 941 3706 
Q 986 3706 986 3622 
L 986 2880 
L 1632 2880 
L 1632 2675 
L 986 2675 
L 986 845 
Q 986 538 1062 403 
Q 1139 269 1318 269 
Q 1510 269 1702 493 
z
" transform="scale(0.015625)"/>
       <path id="STIXGeneral-Regular-73" d="M 998 1926 
L 1664 1523 
Q 1984 1331 2105 1164 
Q 2227 998 2227 736 
Q 2227 416 1961 176 
Q 1696 -64 1331 -64 
Q 1030 -64 864 -6 
Q 691 51 570 51 
Q 461 51 416 -26 
L 333 -26 
L 333 979 
L 435 979 
Q 538 512 730 294 
Q 922 77 1248 77 
Q 1485 77 1632 211 
Q 1779 346 1779 550 
Q 1779 845 1440 1030 
L 1094 1222 
Q 326 1651 326 2150 
Q 326 2522 566 2730 
Q 806 2938 1210 2938 
Q 1491 2938 1638 2867 
Q 1754 2816 1818 2816 
Q 1862 2816 1920 2880 
L 1990 2880 
L 2022 2010 
L 1926 2010 
Q 1818 2445 1654 2621 
Q 1491 2797 1203 2797 
Q 986 2797 854 2688 
Q 723 2579 723 2362 
Q 723 2253 796 2128 
Q 870 2003 998 1926 
z
" transform="scale(0.015625)"/>
       <path id="STIXGeneral-Regular-20" transform="scale(0.015625)"/>
       <path id="STIXGeneral-Regular-4d" d="M 5530 0 
L 3738 0 
L 3738 122 
Q 4115 147 4214 265 
Q 4314 384 4314 787 
L 4314 3661 
L 2682 0 
L 2592 0 
L 979 3514 
L 979 966 
Q 979 448 1088 294 
Q 1197 141 1574 122 
L 1574 0 
L 77 0 
L 77 122 
Q 358 141 480 205 
Q 602 269 650 432 
Q 698 595 698 966 
L 698 3514 
Q 698 3878 589 3984 
Q 480 4090 90 4115 
L 90 4237 
L 1357 4237 
L 2835 1024 
L 4250 4237 
L 5523 4237 
L 5523 4115 
Q 5178 4109 5072 3993 
Q 4966 3878 4966 3520 
L 4966 717 
Q 4966 378 5072 262 
Q 5178 147 5530 122 
L 5530 0 
z
" transform="scale(0.015625)"/>
       <path id="STIXGeneral-Regular-65" d="M 2611 1050 
L 2714 1005 
Q 2330 -64 1376 -64 
Q 813 -64 486 329 
Q 160 723 160 1389 
Q 160 2074 525 2509 
Q 890 2944 1485 2944 
Q 2061 2944 2374 2502 
Q 2560 2246 2592 1773 
L 621 1773 
Q 646 1370 700 1158 
Q 755 947 915 730 
Q 1184 378 1626 378 
Q 1939 378 2153 531 
Q 2368 685 2611 1050 
z
M 634 1978 
L 1939 1978 
Q 1882 2381 1750 2547 
Q 1619 2714 1312 2714 
Q 1043 2714 864 2525 
Q 685 2336 634 1978 
z
" transform="scale(0.015625)"/>
       <path id="STIXGeneral-Regular-6d" d="M 4960 0 
L 3565 0 
L 3565 96 
Q 3834 122 3907 208 
Q 3981 294 3981 576 
L 3981 1894 
Q 3981 2278 3869 2444 
Q 3757 2611 3488 2611 
Q 3264 2611 3107 2521 
Q 2950 2432 2803 2221 
L 2803 608 
Q 2803 301 2896 201 
Q 2989 102 3264 96 
L 3264 0 
L 1830 0 
L 1830 96 
Q 2112 115 2189 188 
Q 2266 262 2266 550 
L 2266 1901 
Q 2266 2611 1850 2611 
Q 1670 2611 1468 2531 
Q 1267 2451 1171 2336 
Q 1088 2240 1088 2227 
L 1088 448 
Q 1088 243 1177 176 
Q 1267 109 1523 96 
L 1523 0 
L 102 0 
L 102 96 
Q 371 102 460 195 
Q 550 288 550 563 
L 550 2150 
Q 550 2387 499 2480 
Q 448 2573 326 2573 
Q 230 2573 122 2547 
L 122 2656 
Q 557 2778 1011 2944 
L 1062 2925 
L 1062 2451 
L 1075 2451 
Q 1363 2752 1584 2848 
Q 1805 2944 2054 2944 
Q 2560 2944 2733 2406 
Q 3232 2944 3776 2944 
Q 4518 2944 4518 1792 
L 4518 493 
Q 4518 282 4582 202 
Q 4646 122 4794 109 
L 4960 96 
L 4960 0 
z
" transform="scale(0.015625)"/>
       <path id="STIXGeneral-Regular-6f" d="M 3008 1478 
Q 3008 806 2608 371 
Q 2208 -64 1568 -64 
Q 979 -64 582 368 
Q 186 800 186 1459 
Q 186 2125 582 2534 
Q 979 2944 1626 2944 
Q 2221 2944 2614 2537 
Q 3008 2131 3008 1478 
z
M 2432 1306 
Q 2432 2035 2112 2445 
Q 1856 2765 1504 2765 
Q 1171 2765 966 2493 
Q 762 2221 762 1747 
Q 762 928 1101 435 
Q 1318 115 1677 115 
Q 2029 115 2230 432 
Q 2432 749 2432 1306 
z
" transform="scale(0.015625)"/>
       <path id="STIXGeneral-Regular-72" d="M 1024 2931 
L 1024 2342 
Q 1267 2688 1430 2816 
Q 1594 2944 1792 2944 
Q 1958 2944 2051 2854 
Q 2144 2765 2144 2605 
Q 2144 2470 2077 2393 
Q 2010 2317 1894 2317 
Q 1773 2317 1638 2445 
Q 1536 2541 1472 2541 
Q 1338 2541 1181 2355 
Q 1024 2170 1024 2016 
L 1024 576 
Q 1024 301 1133 205 
Q 1242 109 1568 96 
L 1568 0 
L 32 0 
L 32 96 
Q 339 154 412 224 
Q 486 294 486 538 
L 486 2138 
Q 486 2349 438 2435 
Q 390 2522 269 2522 
Q 166 2522 45 2496 
L 45 2598 
Q 448 2726 992 2944 
L 1024 2931 
z
" transform="scale(0.015625)"/>
       <path id="STIXGeneral-Regular-69" d="M 1152 4045 
Q 1152 3904 1056 3811 
Q 960 3718 819 3718 
Q 685 3718 592 3811 
Q 499 3904 499 4045 
Q 499 4179 595 4275 
Q 691 4371 826 4371 
Q 966 4371 1059 4275 
Q 1152 4179 1152 4045 
z
M 1619 0 
L 102 0 
L 102 96 
Q 435 115 521 211 
Q 608 307 608 666 
L 608 2118 
Q 608 2342 563 2432 
Q 518 2522 397 2522 
Q 243 2522 128 2490 
L 128 2592 
L 1120 2944 
L 1146 2918 
L 1146 672 
Q 1146 314 1226 218 
Q 1306 122 1619 96 
L 1619 0 
z
" transform="scale(0.015625)"/>
       <path id="STIXGeneral-Regular-7a" d="M 2675 870 
L 2579 0 
L 173 0 
L 173 96 
L 1875 2688 
L 1011 2688 
Q 710 2688 604 2582 
Q 499 2477 454 2125 
L 339 2125 
L 365 2880 
L 2579 2880 
L 2579 2784 
L 858 192 
L 1709 192 
Q 2246 192 2387 365 
Q 2477 474 2560 896 
L 2675 870 
z
" transform="scale(0.015625)"/>
       <path id="STIXGeneral-Regular-64" d="M 3142 269 
L 2202 -64 
L 2176 -45 
L 2176 365 
Q 1869 -64 1357 -64 
Q 826 -64 499 317 
Q 173 698 173 1312 
Q 173 1990 563 2467 
Q 954 2944 1504 2944 
Q 1850 2944 2176 2669 
L 2176 3667 
Q 2176 3866 2118 3930 
Q 2061 3994 1882 3994 
Q 1792 3994 1741 3987 
L 1741 4090 
Q 2323 4243 2682 4371 
L 2714 4358 
L 2714 730 
Q 2714 506 2768 435 
Q 2822 365 2995 365 
Q 3034 365 3142 371 
L 3142 269 
z
M 2176 653 
L 2176 2125 
Q 2176 2381 1981 2573 
Q 1786 2765 1523 2765 
Q 1158 2765 940 2438 
Q 723 2112 723 1568 
Q 723 979 963 624 
Q 1203 269 1606 269 
Q 1907 269 2080 474 
Q 2176 582 2176 653 
z
" transform="scale(0.015625)"/>
       <path id="STIXGeneral-Regular-28" d="M 1946 -1030 
L 1869 -1133 
Q 1126 -710 716 32 
Q 307 774 307 1613 
Q 307 3386 1888 4326 
L 1946 4224 
Q 1293 3667 1075 3126 
Q 858 2586 858 1632 
Q 858 685 1082 96 
Q 1306 -493 1946 -1030 
z
" transform="scale(0.015625)"/>
       <path id="STIXGeneral-Regular-2265" d="M 4026 2074 
L 410 326 
L 410 730 
L 3174 2106 
L 410 3482 
L 410 3898 
L 4026 2138 
L 4026 2074 
z
M 4026 -659 
L 410 -659 
L 410 -237 
L 4026 -237 
L 4026 -659 
z
" transform="scale(0.015625)"/>
       <path id="STIXGeneral-Regular-39" d="M 378 -141 
L 358 -13 
Q 1094 115 1603 608 
Q 2112 1101 2304 1882 
Q 1933 1517 1344 1517 
Q 826 1517 509 1875 
Q 192 2234 192 2816 
Q 192 3462 573 3894 
Q 954 4326 1523 4326 
Q 2131 4326 2528 3840 
Q 2938 3328 2938 2522 
Q 2938 1958 2742 1462 
Q 2547 966 2170 621 
Q 1773 262 1395 105 
Q 1018 -51 378 -141 
z
M 2317 2272 
L 2317 2522 
Q 2317 4147 1472 4147 
Q 1171 4147 1005 3930 
Q 909 3802 845 3546 
Q 781 3290 781 3034 
Q 781 2464 995 2128 
Q 1210 1792 1568 1792 
Q 1824 1792 2070 1917 
Q 2317 2042 2317 2272 
z
" transform="scale(0.015625)"/>
       <path id="STIXGeneral-Regular-25" d="M 4390 1363 
Q 4390 781 4070 329 
Q 3750 -122 3341 -122 
Q 3014 -122 2790 134 
Q 2566 390 2566 762 
Q 2566 1274 2940 1693 
Q 3315 2112 3776 2112 
Q 4070 2112 4230 1917 
Q 4390 1722 4390 1363 
z
M 4243 1376 
Q 4243 1626 4131 1779 
Q 4019 1933 3840 1933 
Q 3654 1933 3526 1786 
Q 3315 1562 3171 1187 
Q 3027 813 3027 486 
Q 3027 301 3129 176 
Q 3232 51 3386 51 
Q 3718 51 3980 457 
Q 4243 864 4243 1376 
z
M 3974 4518 
L 1222 -115 
L 922 -115 
L 3443 4096 
Q 3264 3891 3094 3811 
Q 2925 3731 2669 3731 
Q 2445 3731 2182 3821 
Q 2208 3674 2208 3539 
Q 2208 3206 2067 2873 
Q 1926 2541 1696 2323 
Q 1453 2086 1146 2086 
Q 826 2086 608 2339 
Q 390 2592 390 2963 
Q 390 3507 761 3916 
Q 1133 4326 1626 4326 
Q 1792 4326 2010 4147 
Q 2310 3898 2624 3898 
Q 2918 3898 3084 3994 
Q 3251 4090 3693 4518 
L 3974 4518 
z
M 2054 3642 
Q 2054 3782 2025 3833 
Q 1997 3885 1894 3936 
Q 1747 4006 1613 4154 
Q 1414 4058 1331 3984 
Q 1248 3910 1152 3750 
Q 845 3264 845 2707 
Q 845 2509 944 2384 
Q 1043 2259 1210 2259 
Q 1549 2259 1801 2675 
Q 2054 3091 2054 3642 
z
" transform="scale(0.015625)"/>
       <path id="STIXGeneral-Regular-52" d="M 4224 0 
L 3187 0 
L 1664 1971 
L 1306 1958 
L 1306 717 
Q 1306 352 1405 249 
Q 1504 147 1875 122 
L 1875 0 
L 109 0 
L 109 122 
Q 474 154 563 262 
Q 653 371 653 794 
L 653 3526 
Q 653 3885 563 3987 
Q 474 4090 109 4115 
L 109 4237 
L 1850 4237 
Q 2726 4237 3187 3859 
Q 3501 3603 3501 3091 
Q 3501 2221 2342 2042 
L 3622 422 
Q 3757 256 3878 198 
Q 4000 141 4224 122 
L 4224 0 
z
M 1306 3731 
L 1306 2195 
Q 1766 2202 1990 2246 
Q 2214 2291 2438 2413 
Q 2803 2618 2803 3142 
Q 2803 4000 1632 4000 
Q 1459 4000 1382 3945 
Q 1306 3891 1306 3731 
z
" transform="scale(0.015625)"/>
       <path id="STIXGeneral-Regular-6c" d="M 1645 0 
L 134 0 
L 134 96 
Q 435 122 531 221 
Q 627 320 627 589 
L 627 3590 
Q 627 3821 569 3910 
Q 512 4000 358 4000 
Q 224 4000 122 3987 
L 122 4090 
Q 730 4237 1133 4371 
L 1165 4346 
L 1165 557 
Q 1165 288 1254 201 
Q 1344 115 1645 96 
L 1645 0 
z
" transform="scale(0.015625)"/>
       <path id="STIXGeneral-Regular-29" d="M 186 4224 
L 262 4326 
Q 992 3891 1408 3148 
Q 1824 2406 1824 1581 
Q 1824 -166 243 -1133 
L 186 -1030 
Q 845 -486 1059 54 
Q 1274 595 1274 1562 
Q 1274 2534 1059 3120 
Q 845 3706 186 4224 
z
" transform="scale(0.015625)"/>
      </defs>
      <use xlink:href="#STIXGeneral-Regular-46"/>
      <use xlink:href="#STIXGeneral-Regular-61" x="55.599991"/>
      <use xlink:href="#STIXGeneral-Regular-63" x="99.999985"/>
      <use xlink:href="#STIXGeneral-Regular-74" x="144.399979"/>
      <use xlink:href="#STIXGeneral-Regular-73" x="172.199966"/>
      <use xlink:href="#STIXGeneral-Regular-20" x="211.09996"/>
      <use xlink:href="#STIXGeneral-Regular-4d" x="236.099945"/>
      <use xlink:href="#STIXGeneral-Regular-65" x="324.999939"/>
      <use xlink:href="#STIXGeneral-Regular-6d" x="369.399933"/>
      <use xlink:href="#STIXGeneral-Regular-6f" x="447.199921"/>
      <use xlink:href="#STIXGeneral-Regular-72" x="497.199905"/>
      <use xlink:href="#STIXGeneral-Regular-69" x="530.499893"/>
      <use xlink:href="#STIXGeneral-Regular-7a" x="558.299881"/>
      <use xlink:href="#STIXGeneral-Regular-65" x="602.699875"/>
      <use xlink:href="#STIXGeneral-Regular-64" x="647.099869"/>
      <use xlink:href="#STIXGeneral-Regular-20" x="697.099854"/>
      <use xlink:href="#STIXGeneral-Regular-28" x="722.099838"/>
      <use xlink:href="#STIXGeneral-Regular-2265" x="755.399826"/>
      <use xlink:href="#STIXGeneral-Regular-39" x="823.899811"/>
      <use xlink:href="#STIXGeneral-Regular-35" x="873.899796"/>
      <use xlink:href="#STIXGeneral-Regular-25" x="923.89978"/>
      <use xlink:href="#STIXGeneral-Regular-20" x="998.599762"/>
      <use xlink:href="#STIXGeneral-Regular-52" x="1023.599747"/>
      <use xlink:href="#STIXGeneral-Regular-65" x="1090.299744"/>
      <use xlink:href="#STIXGeneral-Regular-63" x="1134.699738"/>
      <use xlink:href="#STIXGeneral-Regular-61" x="1179.099731"/>
      <use xlink:href="#STIXGeneral-Regular-6c" x="1223.499725"/>
      <use xlink:href="#STIXGeneral-Regular-6c" x="1251.299713"/>
      <use xlink:href="#STIXGeneral-Regular-29" x="1279.099701"/>
     </g>
    </g>
   </g>
   <g id="matplotlib.axis_2">
    <g id="ytick_1">
     <g id="line2d_32">
      <path d="M 37.55 142.16894 
L 237.22875 142.16894 
" clip-path="url(#p732cf96f75)" style="fill: none; stroke: #cccccc; stroke-width: 0.6; stroke-linecap: square"/>
     </g>
     <g id="line2d_33">
      <defs>
       <path id="m2c20f0c432" d="M 0 0 
L -3.5 0 
" style="stroke: #000000; stroke-width: 0.8"/>
      </defs>
      <g>
       <use xlink:href="#m2c20f0c432" x="37.55" y="142.16894" style="stroke: #000000; stroke-width: 0.8"/>
      </g>
     </g>
     <g id="text_8">
      <!-- 0.0 -->
      <g transform="translate(19.3 145.242299) scale(0.09 -0.09)">
       <defs>
        <path id="STIXGeneral-Regular-2e" d="M 1158 275 
Q 1158 134 1052 32 
Q 947 -70 800 -70 
Q 653 -70 550 32 
Q 448 134 448 281 
Q 448 429 553 534 
Q 659 640 806 640 
Q 947 640 1052 531 
Q 1158 422 1158 275 
z
" transform="scale(0.015625)"/>
       </defs>
       <use xlink:href="#STIXGeneral-Regular-30"/>
       <use xlink:href="#STIXGeneral-Regular-2e" x="49.999985"/>
       <use xlink:href="#STIXGeneral-Regular-30" x="74.999969"/>
      </g>
     </g>
    </g>
    <g id="ytick_2">
     <g id="line2d_34">
      <path d="M 37.55 116.955625 
L 237.22875 116.955625 
" clip-path="url(#p732cf96f75)" style="fill: none; stroke: #cccccc; stroke-width: 0.6; stroke-linecap: square"/>
     </g>
     <g id="line2d_35">
      <g>
       <use xlink:href="#m2c20f0c432" x="37.55" y="116.955625" style="stroke: #000000; stroke-width: 0.8"/>
      </g>
     </g>
     <g id="text_9">
      <!-- 0.2 -->
      <g transform="translate(19.3 120.028985) scale(0.09 -0.09)">
       <defs>
        <path id="STIXGeneral-Regular-32" d="M 3034 877 
L 2688 0 
L 186 0 
L 186 77 
L 1325 1286 
Q 1773 1754 1965 2144 
Q 2157 2534 2157 2950 
Q 2157 3379 1920 3616 
Q 1683 3853 1267 3853 
Q 922 3853 720 3673 
Q 518 3494 326 3021 
L 192 3053 
Q 301 3648 630 3987 
Q 960 4326 1523 4326 
Q 2054 4326 2380 4006 
Q 2707 3686 2707 3200 
Q 2707 2477 1888 1613 
L 832 486 
L 2330 486 
Q 2541 486 2665 569 
Q 2790 653 2944 915 
L 3034 877 
z
" transform="scale(0.015625)"/>
       </defs>
       <use xlink:href="#STIXGeneral-Regular-30"/>
       <use xlink:href="#STIXGeneral-Regular-2e" x="49.999985"/>
       <use xlink:href="#STIXGeneral-Regular-32" x="74.999969"/>
      </g>
     </g>
    </g>
    <g id="ytick_3">
     <g id="line2d_36">
      <path d="M 37.55 91.742311 
L 237.22875 91.742311 
" clip-path="url(#p732cf96f75)" style="fill: none; stroke: #cccccc; stroke-width: 0.6; stroke-linecap: square"/>
     </g>
     <g id="line2d_37">
      <g>
       <use xlink:href="#m2c20f0c432" x="37.55" y="91.742311" style="stroke: #000000; stroke-width: 0.8"/>
      </g>
     </g>
     <g id="text_10">
      <!-- 0.4 -->
      <g transform="translate(19.3 94.81567) scale(0.09 -0.09)">
       <defs>
        <path id="STIXGeneral-Regular-34" d="M 3027 1069 
L 2368 1069 
L 2368 0 
L 1869 0 
L 1869 1069 
L 77 1069 
L 77 1478 
L 2086 4326 
L 2368 4326 
L 2368 1478 
L 3027 1478 
L 3027 1069 
z
M 1869 1478 
L 1869 3674 
L 333 1478 
L 1869 1478 
z
" transform="scale(0.015625)"/>
       </defs>
       <use xlink:href="#STIXGeneral-Regular-30"/>
       <use xlink:href="#STIXGeneral-Regular-2e" x="49.999985"/>
       <use xlink:href="#STIXGeneral-Regular-34" x="74.999969"/>
      </g>
     </g>
    </g>
    <g id="ytick_4">
     <g id="line2d_38">
      <path d="M 37.55 66.528996 
L 237.22875 66.528996 
" clip-path="url(#p732cf96f75)" style="fill: none; stroke: #cccccc; stroke-width: 0.6; stroke-linecap: square"/>
     </g>
     <g id="line2d_39">
      <g>
       <use xlink:href="#m2c20f0c432" x="37.55" y="66.528996" style="stroke: #000000; stroke-width: 0.8"/>
      </g>
     </g>
     <g id="text_11">
      <!-- 0.6 -->
      <g transform="translate(19.3 69.602355) scale(0.09 -0.09)">
       <defs>
        <path id="STIXGeneral-Regular-36" d="M 2854 4378 
L 2867 4275 
Q 2112 4154 1606 3664 
Q 1101 3174 973 2451 
Q 1344 2739 1786 2739 
Q 2349 2739 2672 2380 
Q 2995 2022 2995 1402 
Q 2995 774 2669 378 
Q 2291 -90 1651 -90 
Q 870 -90 518 557 
Q 218 1107 218 1786 
Q 218 2835 915 3552 
Q 1312 3962 1731 4131 
Q 2150 4301 2854 4378 
z
M 2419 1203 
Q 2419 2445 1555 2445 
Q 1235 2445 1024 2275 
Q 813 2106 813 1702 
Q 813 954 1046 522 
Q 1280 90 1722 90 
Q 2061 90 2240 394 
Q 2419 698 2419 1203 
z
" transform="scale(0.015625)"/>
       </defs>
       <use xlink:href="#STIXGeneral-Regular-30"/>
       <use xlink:href="#STIXGeneral-Regular-2e" x="49.999985"/>
       <use xlink:href="#STIXGeneral-Regular-36" x="74.999969"/>
      </g>
     </g>
    </g>
    <g id="ytick_5">
     <g id="line2d_40">
      <path d="M 37.55 41.315681 
L 237.22875 41.315681 
" clip-path="url(#p732cf96f75)" style="fill: none; stroke: #cccccc; stroke-width: 0.6; stroke-linecap: square"/>
     </g>
     <g id="line2d_41">
      <g>
       <use xlink:href="#m2c20f0c432" x="37.55" y="41.315681" style="stroke: #000000; stroke-width: 0.8"/>
      </g>
     </g>
     <g id="text_12">
      <!-- 0.8 -->
      <g transform="translate(19.3 44.389041) scale(0.09 -0.09)">
       <defs>
        <path id="STIXGeneral-Regular-38" d="M 2848 992 
Q 2848 499 2505 204 
Q 2163 -90 1587 -90 
Q 1050 -90 704 204 
Q 358 499 358 954 
Q 358 1293 524 1533 
Q 691 1773 1190 2125 
Q 710 2522 553 2765 
Q 397 3008 397 3328 
Q 397 3782 745 4054 
Q 1094 4326 1638 4326 
Q 2106 4326 2410 4060 
Q 2714 3795 2714 3411 
Q 2714 3059 2531 2848 
Q 2349 2637 1856 2374 
Q 2432 1990 2640 1689 
Q 2848 1389 2848 992 
z
M 2272 3411 
Q 2272 3744 2086 3945 
Q 1901 4147 1574 4147 
Q 1248 4147 1059 3977 
Q 870 3808 870 3513 
Q 870 3219 1059 2979 
Q 1248 2739 1670 2490 
Q 1997 2682 2134 2896 
Q 2272 3110 2272 3411 
z
M 1734 1741 
L 1357 1997 
Q 1075 1766 960 1545 
Q 845 1325 845 1011 
Q 845 576 1065 333 
Q 1286 90 1658 90 
Q 1971 90 2166 285 
Q 2362 480 2362 794 
Q 2362 1082 2214 1299 
Q 2067 1517 1734 1741 
z
" transform="scale(0.015625)"/>
       </defs>
       <use xlink:href="#STIXGeneral-Regular-30"/>
       <use xlink:href="#STIXGeneral-Regular-2e" x="49.999985"/>
       <use xlink:href="#STIXGeneral-Regular-38" x="74.999969"/>
      </g>
     </g>
    </g>
    <g id="text_13">
     <!-- Total Variation -->
     <g transform="translate(13.346719 115.512691) rotate(-90) scale(0.09 -0.09)">
      <defs>
       <path id="STIXGeneral-Regular-54" d="M 3795 3149 
L 3642 3149 
Q 3539 3674 3353 3821 
Q 3168 3968 2656 3968 
L 2278 3968 
L 2278 710 
Q 2278 346 2387 243 
Q 2496 141 2893 122 
L 2893 0 
L 1024 0 
L 1024 122 
Q 1427 147 1526 256 
Q 1626 365 1626 787 
L 1626 3968 
L 1242 3968 
Q 723 3968 540 3817 
Q 358 3667 262 3149 
L 109 3149 
L 154 4237 
L 3750 4237 
L 3795 3149 
z
" transform="scale(0.015625)"/>
       <path id="STIXGeneral-Regular-56" d="M 4461 4237 
L 4461 4115 
Q 4262 4109 4134 3990 
Q 4006 3872 3872 3533 
L 2451 -70 
L 2355 -70 
L 794 3411 
Q 589 3866 467 3987 
Q 346 4109 102 4115 
L 102 4237 
L 1798 4237 
L 1798 4115 
L 1619 4102 
Q 1331 4083 1331 3904 
Q 1331 3776 1581 3219 
L 2554 1030 
L 3494 3392 
Q 3616 3699 3616 3853 
Q 3616 3898 3606 3933 
Q 3597 3968 3584 3993 
Q 3571 4019 3536 4038 
Q 3501 4058 3481 4067 
Q 3462 4077 3411 4086 
Q 3360 4096 3337 4099 
Q 3315 4102 3248 4108 
Q 3181 4115 3155 4115 
L 3155 4237 
L 4461 4237 
z
" transform="scale(0.015625)"/>
       <path id="STIXGeneral-Regular-6e" d="M 3104 0 
L 1773 0 
L 1779 96 
Q 2016 115 2096 233 
Q 2176 352 2176 672 
L 2176 1946 
Q 2176 2592 1709 2592 
Q 1549 2592 1408 2515 
Q 1267 2438 1050 2227 
L 1050 461 
Q 1050 269 1136 192 
Q 1222 115 1466 96 
L 1466 0 
L 115 0 
L 115 96 
Q 358 115 435 214 
Q 512 314 512 602 
L 512 2157 
Q 512 2394 467 2483 
Q 422 2573 288 2573 
Q 160 2573 102 2547 
L 102 2656 
Q 550 2784 979 2944 
L 1030 2925 
L 1030 2426 
L 1037 2426 
Q 1491 2944 1958 2944 
Q 2323 2944 2518 2688 
Q 2714 2432 2714 1958 
L 2714 544 
Q 2714 288 2790 205 
Q 2867 122 3104 96 
L 3104 0 
z
" transform="scale(0.015625)"/>
      </defs>
      <use xlink:href="#STIXGeneral-Regular-54"/>
      <use xlink:href="#STIXGeneral-Regular-6f" x="61.099991"/>
      <use xlink:href="#STIXGeneral-Regular-74" x="111.099976"/>
      <use xlink:href="#STIXGeneral-Regular-61" x="138.899963"/>
      <use xlink:href="#STIXGeneral-Regular-6c" x="183.299957"/>
      <use xlink:href="#STIXGeneral-Regular-20" x="211.099945"/>
      <use xlink:href="#STIXGeneral-Regular-56" x="236.09993"/>
      <use xlink:href="#STIXGeneral-Regular-61" x="308.299911"/>
      <use xlink:href="#STIXGeneral-Regular-72" x="352.699905"/>
      <use xlink:href="#STIXGeneral-Regular-69" x="385.999893"/>
      <use xlink:href="#STIXGeneral-Regular-61" x="413.799881"/>
      <use xlink:href="#STIXGeneral-Regular-74" x="458.199875"/>
      <use xlink:href="#STIXGeneral-Regular-69" x="485.999863"/>
      <use xlink:href="#STIXGeneral-Regular-6f" x="513.79985"/>
      <use xlink:href="#STIXGeneral-Regular-6e" x="563.799835"/>
     </g>
    </g>
   </g>
   <g id="line2d_42">
    <path d="M 37.55 135.582141 
L 237.22875 135.582141 
" clip-path="url(#p732cf96f75)" style="fill: none; stroke-dasharray: 3.7,1.6; stroke-dashoffset: 0; stroke: #000000"/>
   </g>
   <g id="line2d_43">
    <path d="M 46.626307 142.16894 
L 60.542701 117.838059 
L 85.901076 118.395919 
L 112.107004 115.627615 
L 161.976201 116.620073 
L 228.152443 99.72056 
" clip-path="url(#p732cf96f75)" style="fill: none; stroke: #2a788e; stroke-width: 1.5; stroke-linecap: square"/>
    <defs>
     <path id="meef389f7f4" d="M 0 2 
C 0.530406 2 1.03916 1.789267 1.414214 1.414214 
C 1.789267 1.03916 2 0.530406 2 0 
C 2 -0.530406 1.789267 -1.03916 1.414214 -1.414214 
C 1.03916 -1.789267 0.530406 -2 0 -2 
C -0.530406 -2 -1.03916 -1.789267 -1.414214 -1.414214 
C -1.789267 -1.03916 -2 -0.530406 -2 0 
C -2 0.530406 -1.789267 1.03916 -1.414214 1.414214 
C -1.03916 1.789267 -0.530406 2 0 2 
z
" style="stroke: #2a788e"/>
    </defs>
    <g clip-path="url(#p732cf96f75)">
     <use xlink:href="#meef389f7f4" x="46.626307" y="142.16894" style="fill: #2a788e; stroke: #2a788e"/>
     <use xlink:href="#meef389f7f4" x="60.542701" y="117.838059" style="fill: #2a788e; stroke: #2a788e"/>
     <use xlink:href="#meef389f7f4" x="85.901076" y="118.395919" style="fill: #2a788e; stroke: #2a788e"/>
     <use xlink:href="#meef389f7f4" x="112.107004" y="115.627615" style="fill: #2a788e; stroke: #2a788e"/>
     <use xlink:href="#meef389f7f4" x="161.976201" y="116.620073" style="fill: #2a788e; stroke: #2a788e"/>
     <use xlink:href="#meef389f7f4" x="228.152443" y="99.72056" style="fill: #2a788e; stroke: #2a788e"/>
    </g>
   </g>
   <g id="line2d_44">
    <path d="M 46.626307 142.16894 
L 60.542701 129.195828 
L 85.901076 129.093238 
L 112.107004 129.439998 
L 161.976201 128.84065 
L 228.152443 123.472081 
" clip-path="url(#p732cf96f75)" style="fill: none; stroke: #440154; stroke-width: 1.5; stroke-linecap: square"/>
    <defs>
     <path id="meed3d2953b" d="M 0 2 
C 0.530406 2 1.03916 1.789267 1.414214 1.414214 
C 1.789267 1.03916 2 0.530406 2 0 
C 2 -0.530406 1.789267 -1.03916 1.414214 -1.414214 
C 1.03916 -1.789267 0.530406 -2 0 -2 
C -0.530406 -2 -1.03916 -1.789267 -1.414214 -1.414214 
C -1.789267 -1.03916 -2 -0.530406 -2 0 
C -2 0.530406 -1.789267 1.03916 -1.414214 1.414214 
C -1.03916 1.789267 -0.530406 2 0 2 
z
" style="stroke: #440154"/>
    </defs>
    <g clip-path="url(#p732cf96f75)">
     <use xlink:href="#meed3d2953b" x="46.626307" y="142.16894" style="fill: #440154; stroke: #440154"/>
     <use xlink:href="#meed3d2953b" x="60.542701" y="129.195828" style="fill: #440154; stroke: #440154"/>
     <use xlink:href="#meed3d2953b" x="85.901076" y="129.093238" style="fill: #440154; stroke: #440154"/>
     <use xlink:href="#meed3d2953b" x="112.107004" y="129.439998" style="fill: #440154; stroke: #440154"/>
     <use xlink:href="#meed3d2953b" x="161.976201" y="128.84065" style="fill: #440154; stroke: #440154"/>
     <use xlink:href="#meed3d2953b" x="228.152443" y="123.472081" style="fill: #440154; stroke: #440154"/>
    </g>
   </g>
   <g id="line2d_45">
    <path d="M 46.626307 142.16894 
L 60.542701 132.026103 
L 85.901076 132.301779 
L 112.107004 131.665933 
L 161.976201 131.680046 
L 228.152443 128.586832 
" clip-path="url(#p732cf96f75)" style="fill: none; stroke: #270031; stroke-width: 1.5; stroke-linecap: square"/>
    <defs>
     <path id="m54a17c8ce5" d="M 0 2 
C 0.530406 2 1.03916 1.789267 1.414214 1.414214 
C 1.789267 1.03916 2 0.530406 2 0 
C 2 -0.530406 1.789267 -1.03916 1.414214 -1.414214 
C 1.03916 -1.789267 0.530406 -2 0 -2 
C -0.530406 -2 -1.03916 -1.789267 -1.414214 -1.414214 
C -1.789267 -1.03916 -2 -0.530406 -2 0 
C -2 0.530406 -1.789267 1.03916 -1.414214 1.414214 
C -1.03916 1.789267 -0.530406 2 0 2 
z
" style="stroke: #270031"/>
    </defs>
    <g clip-path="url(#p732cf96f75)">
     <use xlink:href="#m54a17c8ce5" x="46.626307" y="142.16894" style="fill: #270031; stroke: #270031"/>
     <use xlink:href="#m54a17c8ce5" x="60.542701" y="132.026103" style="fill: #270031; stroke: #270031"/>
     <use xlink:href="#m54a17c8ce5" x="85.901076" y="132.301779" style="fill: #270031; stroke: #270031"/>
     <use xlink:href="#m54a17c8ce5" x="112.107004" y="131.665933" style="fill: #270031; stroke: #270031"/>
     <use xlink:href="#m54a17c8ce5" x="161.976201" y="131.680046" style="fill: #270031; stroke: #270031"/>
     <use xlink:href="#m54a17c8ce5" x="228.152443" y="128.586832" style="fill: #270031; stroke: #270031"/>
    </g>
   </g>
   <g id="line2d_46">
    <path d="M 46.626307 142.16894 
L 60.542701 128.08672 
L 85.901076 129.973115 
L 112.107004 129.091717 
L 161.976201 129.051778 
L 228.152443 113.555705 
" clip-path="url(#p732cf96f75)" style="fill: none; stroke: #414487; stroke-width: 1.5; stroke-linecap: square"/>
    <defs>
     <path id="mee5ff213a8" d="M 0 -2 
L -2 2 
L 2 2 
z
" style="stroke: #414487; stroke-linejoin: miter"/>
    </defs>
    <g clip-path="url(#p732cf96f75)">
     <use xlink:href="#mee5ff213a8" x="46.626307" y="142.16894" style="fill: #414487; stroke: #414487; stroke-linejoin: miter"/>
     <use xlink:href="#mee5ff213a8" x="60.542701" y="128.08672" style="fill: #414487; stroke: #414487; stroke-linejoin: miter"/>
     <use xlink:href="#mee5ff213a8" x="85.901076" y="129.973115" style="fill: #414487; stroke: #414487; stroke-linejoin: miter"/>
     <use xlink:href="#mee5ff213a8" x="112.107004" y="129.091717" style="fill: #414487; stroke: #414487; stroke-linejoin: miter"/>
     <use xlink:href="#mee5ff213a8" x="161.976201" y="129.051778" style="fill: #414487; stroke: #414487; stroke-linejoin: miter"/>
     <use xlink:href="#mee5ff213a8" x="228.152443" y="113.555705" style="fill: #414487; stroke: #414487; stroke-linejoin: miter"/>
    </g>
   </g>
   <g id="line2d_47">
    <path d="M 46.626307 142.16894 
L 60.542701 106.132777 
L 85.901076 112.397772 
L 112.107004 107.397451 
L 161.976201 96.541367 
L 228.152443 34.691871 
" clip-path="url(#p732cf96f75)" style="fill: none; stroke: #7ad151; stroke-width: 1.5; stroke-linecap: square"/>
    <defs>
     <path id="m51b3c78e7d" d="M 0 -2 
L -2 2 
L 2 2 
z
" style="stroke: #7ad151; stroke-linejoin: miter"/>
    </defs>
    <g clip-path="url(#p732cf96f75)">
     <use xlink:href="#m51b3c78e7d" x="46.626307" y="142.16894" style="fill: #7ad151; stroke: #7ad151; stroke-linejoin: miter"/>
     <use xlink:href="#m51b3c78e7d" x="60.542701" y="106.132777" style="fill: #7ad151; stroke: #7ad151; stroke-linejoin: miter"/>
     <use xlink:href="#m51b3c78e7d" x="85.901076" y="112.397772" style="fill: #7ad151; stroke: #7ad151; stroke-linejoin: miter"/>
     <use xlink:href="#m51b3c78e7d" x="112.107004" y="107.397451" style="fill: #7ad151; stroke: #7ad151; stroke-linejoin: miter"/>
     <use xlink:href="#m51b3c78e7d" x="161.976201" y="96.541367" style="fill: #7ad151; stroke: #7ad151; stroke-linejoin: miter"/>
     <use xlink:href="#m51b3c78e7d" x="228.152443" y="34.691871" style="fill: #7ad151; stroke: #7ad151; stroke-linejoin: miter"/>
    </g>
   </g>
   <g id="line2d_48">
    <path d="M 46.626307 142.16894 
L 60.542701 110.39807 
L 85.901076 109.099027 
L 112.107004 103.38593 
L 161.976201 92.909284 
L 228.152443 75.82092 
" clip-path="url(#p732cf96f75)" style="fill: none; stroke: #22a884; stroke-width: 1.5; stroke-linecap: square"/>
    <defs>
     <path id="m1c1d906573" d="M 0 -2 
L -2 2 
L 2 2 
z
" style="stroke: #22a884; stroke-linejoin: miter"/>
    </defs>
    <g clip-path="url(#p732cf96f75)">
     <use xlink:href="#m1c1d906573" x="46.626307" y="142.16894" style="fill: #22a884; stroke: #22a884; stroke-linejoin: miter"/>
     <use xlink:href="#m1c1d906573" x="60.542701" y="110.39807" style="fill: #22a884; stroke: #22a884; stroke-linejoin: miter"/>
     <use xlink:href="#m1c1d906573" x="85.901076" y="109.099027" style="fill: #22a884; stroke: #22a884; stroke-linejoin: miter"/>
     <use xlink:href="#m1c1d906573" x="112.107004" y="103.38593" style="fill: #22a884; stroke: #22a884; stroke-linejoin: miter"/>
     <use xlink:href="#m1c1d906573" x="161.976201" y="92.909284" style="fill: #22a884; stroke: #22a884; stroke-linejoin: miter"/>
     <use xlink:href="#m1c1d906573" x="228.152443" y="75.82092" style="fill: #22a884; stroke: #22a884; stroke-linejoin: miter"/>
    </g>
   </g>
   <g id="patch_3">
    <path d="M 37.55 147.596659 
L 37.55 28.187005 
" style="fill: none; stroke: #000000; stroke-width: 0.75; stroke-linejoin: miter; stroke-linecap: square"/>
   </g>
   <g id="patch_4">
    <path d="M 237.22875 147.596659 
L 237.22875 28.187005 
" style="fill: none; stroke: #000000; stroke-width: 0.75; stroke-linejoin: miter; stroke-linecap: square"/>
   </g>
   <g id="patch_5">
    <path d="M 37.55 147.596659 
L 237.22875 147.596659 
" style="fill: none; stroke: #000000; stroke-width: 0.75; stroke-linejoin: miter; stroke-linecap: square"/>
   </g>
   <g id="patch_6">
    <path d="M 37.55 28.187005 
L 237.22875 28.187005 
" style="fill: none; stroke: #000000; stroke-width: 0.75; stroke-linejoin: miter; stroke-linecap: square"/>
   </g>
   <g id="text_14">
    <!-- Llama Models -->
    <g transform="translate(55.263519 12.66375) scale(0.08 -0.08)">
     <defs>
      <path id="STIXGeneral-Regular-4c" d="M 3827 1114 
L 3520 0 
L 77 0 
L 77 122 
Q 429 141 531 256 
Q 634 371 634 736 
L 634 3494 
Q 634 3872 541 3981 
Q 448 4090 77 4115 
L 77 4237 
L 1888 4237 
L 1888 4115 
Q 1498 4090 1392 3984 
Q 1286 3878 1286 3507 
L 1286 538 
Q 1286 358 1398 304 
Q 1510 250 1862 250 
L 2310 250 
Q 3085 250 3392 640 
Q 3520 813 3661 1114 
L 3827 1114 
z
" transform="scale(0.015625)"/>
     </defs>
     <use xlink:href="#STIXGeneral-Regular-4c"/>
     <use xlink:href="#STIXGeneral-Regular-6c" x="61.099991"/>
     <use xlink:href="#STIXGeneral-Regular-61" x="88.899979"/>
     <use xlink:href="#STIXGeneral-Regular-6d" x="133.299973"/>
     <use xlink:href="#STIXGeneral-Regular-61" x="211.09996"/>
     <use xlink:href="#STIXGeneral-Regular-20" x="255.499954"/>
     <use xlink:href="#STIXGeneral-Regular-4d" x="280.499939"/>
     <use xlink:href="#STIXGeneral-Regular-6f" x="369.399933"/>
     <use xlink:href="#STIXGeneral-Regular-64" x="419.399918"/>
     <use xlink:href="#STIXGeneral-Regular-65" x="469.399902"/>
     <use xlink:href="#STIXGeneral-Regular-6c" x="513.799896"/>
     <use xlink:href="#STIXGeneral-Regular-73" x="541.599884"/>
    </g>
   </g>
   <g id="text_15">
    <!-- SmolLM Models -->
    <g transform="translate(157.464793 12.66375) scale(0.08 -0.08)">
     <defs>
      <path id="STIXGeneral-Regular-53" d="M 3002 2963 
L 2842 2963 
Q 2733 3360 2579 3565 
Q 2189 4064 1651 4064 
Q 1357 4064 1181 3894 
Q 1005 3725 1005 3456 
Q 1005 3328 1069 3206 
Q 1133 3085 1206 2998 
Q 1280 2912 1465 2784 
Q 1651 2656 1766 2589 
Q 1882 2522 2150 2362 
Q 2669 2061 2905 1763 
Q 3142 1466 3142 1107 
Q 3142 576 2771 243 
Q 2400 -90 1837 -90 
Q 1421 -90 1082 58 
Q 915 128 781 128 
Q 704 128 653 70 
Q 602 13 602 -83 
L 461 -83 
L 275 1274 
L 416 1274 
Q 845 141 1734 141 
Q 2074 141 2285 342 
Q 2496 544 2496 858 
Q 2496 1158 2310 1363 
Q 2003 1696 1235 2106 
Q 454 2522 454 3206 
Q 454 3718 768 4022 
Q 1082 4326 1568 4326 
Q 1907 4326 2240 4186 
Q 2413 4109 2522 4109 
Q 2688 4109 2726 4326 
L 2861 4326 
L 3002 2963 
z
" transform="scale(0.015625)"/>
     </defs>
     <use xlink:href="#STIXGeneral-Regular-53"/>
     <use xlink:href="#STIXGeneral-Regular-6d" x="55.599991"/>
     <use xlink:href="#STIXGeneral-Regular-6f" x="133.399979"/>
     <use xlink:href="#STIXGeneral-Regular-6c" x="183.399963"/>
     <use xlink:href="#STIXGeneral-Regular-4c" x="211.199951"/>
     <use xlink:href="#STIXGeneral-Regular-4d" x="272.299942"/>
     <use xlink:href="#STIXGeneral-Regular-20" x="361.199936"/>
     <use xlink:href="#STIXGeneral-Regular-4d" x="386.199921"/>
     <use xlink:href="#STIXGeneral-Regular-6f" x="475.099915"/>
     <use xlink:href="#STIXGeneral-Regular-64" x="525.099899"/>
     <use xlink:href="#STIXGeneral-Regular-65" x="575.099884"/>
     <use xlink:href="#STIXGeneral-Regular-6c" x="619.499878"/>
     <use xlink:href="#STIXGeneral-Regular-73" x="647.299866"/>
    </g>
   </g>
   <g id="legend_1">
    <g id="line2d_49">
     <path d="M 44.75 38.187005 
L 50.15 38.187005 
L 55.55 38.187005 
" style="fill: none; stroke: #000000; stroke-width: 1.5; stroke-linecap: square"/>
    </g>
    <g id="text_16">
     <!-- In-Weight -->
     <g transform="translate(57.55 40.987005) scale(0.08 -0.08)">
      <defs>
       <path id="STIXGeneral-Regular-49" d="M 2016 0 
L 115 0 
L 115 122 
Q 518 134 627 240 
Q 736 346 736 717 
L 736 3526 
Q 736 3898 633 3994 
Q 531 4090 115 4115 
L 115 4237 
L 2016 4237 
L 2016 4115 
Q 1613 4096 1501 3993 
Q 1389 3891 1389 3526 
L 1389 717 
Q 1389 358 1504 246 
Q 1619 134 2016 122 
L 2016 0 
z
" transform="scale(0.015625)"/>
       <path id="STIXGeneral-Regular-2d" d="M 1824 1242 
L 250 1242 
L 250 1645 
L 1824 1645 
L 1824 1242 
z
" transform="scale(0.015625)"/>
       <path id="STIXGeneral-Regular-57" d="M 5965 4237 
L 5965 4115 
Q 5709 4064 5616 3990 
Q 5523 3917 5434 3667 
Q 4704 1709 4128 -70 
L 4032 -70 
Q 3642 1011 3008 2637 
L 2022 -70 
L 1926 -70 
Q 1709 576 1277 1753 
Q 845 2931 698 3347 
Q 538 3808 406 3958 
Q 275 4109 32 4115 
L 32 4237 
L 1594 4237 
L 1594 4115 
Q 1357 4109 1270 4064 
Q 1184 4019 1184 3917 
Q 1184 3808 1254 3616 
L 2176 1210 
L 2842 3021 
L 2662 3501 
Q 2509 3917 2400 4013 
Q 2291 4109 2010 4115 
L 2010 4237 
L 3706 4237 
L 3706 4115 
Q 3213 4102 3213 3891 
Q 3213 3808 3322 3520 
L 4237 1190 
L 5043 3360 
Q 5152 3667 5152 3853 
Q 5152 4109 4704 4115 
L 4704 4237 
L 5965 4237 
z
" transform="scale(0.015625)"/>
       <path id="STIXGeneral-Regular-67" d="M 3008 2483 
L 2477 2483 
Q 2598 2208 2598 1946 
Q 2598 1453 2265 1203 
Q 1933 954 1600 954 
Q 1530 954 1357 973 
L 1235 986 
Q 1107 947 979 812 
Q 851 678 851 582 
Q 851 435 1350 410 
L 2176 371 
Q 2528 358 2739 172 
Q 2950 -13 2950 -314 
Q 2950 -685 2566 -986 
Q 2035 -1395 1286 -1395 
Q 826 -1395 502 -1212 
Q 179 -1030 179 -774 
Q 179 -595 320 -419 
Q 461 -243 806 6 
Q 602 102 534 172 
Q 467 243 467 346 
Q 467 531 762 787 
Q 909 915 1037 1043 
Q 717 1203 579 1401 
Q 442 1600 442 1901 
Q 442 2336 752 2640 
Q 1062 2944 1510 2944 
Q 1766 2944 2022 2848 
L 2163 2797 
Q 2349 2733 2515 2733 
L 3008 2733 
L 3008 2483 
z
M 973 2163 
L 973 2144 
Q 973 1683 1155 1398 
Q 1338 1114 1632 1114 
Q 1850 1114 1978 1270 
Q 2106 1427 2106 1690 
Q 2106 2112 1914 2464 
Q 1754 2765 1446 2765 
Q 1222 2765 1097 2605 
Q 973 2445 973 2163 
z
M 2771 -410 
Q 2771 -230 2595 -163 
Q 2419 -96 1978 -96 
Q 1344 -96 941 -13 
Q 749 -243 688 -348 
Q 627 -454 627 -563 
Q 627 -774 880 -902 
Q 1133 -1030 1555 -1030 
Q 2099 -1030 2435 -860 
Q 2771 -691 2771 -410 
z
" transform="scale(0.015625)"/>
       <path id="STIXGeneral-Regular-68" d="M 3117 0 
L 1760 0 
L 1760 96 
Q 2042 128 2118 224 
Q 2195 320 2195 653 
L 2195 1920 
Q 2195 2598 1722 2598 
Q 1530 2598 1370 2508 
Q 1210 2419 1005 2195 
L 1005 653 
Q 1005 320 1081 224 
Q 1158 128 1440 96 
L 1440 0 
L 58 0 
L 58 96 
Q 333 134 400 224 
Q 467 314 467 653 
L 467 3667 
Q 467 3872 406 3933 
Q 346 3994 141 3994 
Q 83 3994 64 3987 
L 64 4090 
L 237 4141 
Q 730 4288 973 4371 
L 1005 4352 
L 1005 2406 
Q 1229 2694 1446 2819 
Q 1664 2944 1946 2944 
Q 2733 2944 2733 1926 
L 2733 653 
Q 2733 320 2793 233 
Q 2854 147 3117 96 
L 3117 0 
z
" transform="scale(0.015625)"/>
      </defs>
      <use xlink:href="#STIXGeneral-Regular-49"/>
      <use xlink:href="#STIXGeneral-Regular-6e" x="33.299988"/>
      <use xlink:href="#STIXGeneral-Regular-2d" x="83.299973"/>
      <use xlink:href="#STIXGeneral-Regular-57" x="116.59996"/>
      <use xlink:href="#STIXGeneral-Regular-65" x="210.999954"/>
      <use xlink:href="#STIXGeneral-Regular-69" x="255.399948"/>
      <use xlink:href="#STIXGeneral-Regular-67" x="283.199936"/>
      <use xlink:href="#STIXGeneral-Regular-68" x="333.199921"/>
      <use xlink:href="#STIXGeneral-Regular-74" x="383.199905"/>
     </g>
    </g>
    <g id="line2d_50">
     <path d="M 98.43 38.187005 
L 103.83 38.187005 
L 109.23 38.187005 
" style="fill: none; stroke-dasharray: 5.55,2.4; stroke-dashoffset: 0; stroke: #000000; stroke-width: 1.5"/>
    </g>
    <g id="text_17">
     <!-- In-Tool baseline (worst) -->
     <g transform="translate(111.23 40.987005) scale(0.08 -0.08)">
      <defs>
       <path id="STIXGeneral-Regular-62" d="M 979 4358 
L 979 2406 
Q 1082 2650 1315 2797 
Q 1549 2944 1843 2944 
Q 2349 2944 2672 2541 
Q 2995 2138 2995 1536 
Q 2995 832 2566 384 
Q 2138 -64 1498 -64 
Q 1107 -64 774 67 
Q 442 198 442 358 
L 442 3622 
Q 442 3859 384 3926 
Q 326 3994 128 3994 
Q 83 3994 19 3981 
L 19 4090 
L 211 4147 
Q 864 4346 947 4371 
L 979 4358 
z
M 979 2035 
L 979 474 
Q 979 326 1161 233 
Q 1344 141 1600 141 
Q 1978 141 2195 416 
Q 2432 710 2432 1261 
Q 2432 1888 2182 2240 
Q 1971 2541 1613 2541 
Q 1357 2541 1168 2390 
Q 979 2240 979 2035 
z
" transform="scale(0.015625)"/>
       <path id="STIXGeneral-Regular-77" d="M 4442 2880 
L 4442 2784 
Q 4346 2752 4301 2691 
Q 4256 2630 4179 2438 
L 3296 224 
Q 3168 -90 3117 -90 
Q 3085 -90 3062 -48 
Q 3040 -6 2963 186 
L 2381 1696 
L 1664 160 
Q 1549 -90 1504 -90 
Q 1446 -90 1338 192 
L 474 2381 
Q 378 2630 314 2700 
Q 250 2771 134 2784 
L 134 2880 
L 1286 2880 
L 1286 2784 
Q 1120 2765 1056 2720 
Q 992 2675 992 2573 
Q 992 2477 1030 2381 
L 1664 710 
L 2246 1984 
L 2118 2342 
Q 2029 2598 1942 2681 
Q 1856 2765 1677 2784 
L 1677 2880 
L 2976 2880 
L 2976 2784 
Q 2752 2752 2678 2707 
Q 2605 2662 2605 2560 
Q 2605 2458 2714 2176 
L 3251 742 
L 3827 2163 
Q 3936 2432 3936 2592 
Q 3936 2669 3875 2710 
Q 3814 2752 3654 2784 
L 3654 2880 
L 4442 2880 
z
" transform="scale(0.015625)"/>
      </defs>
      <use xlink:href="#STIXGeneral-Regular-49"/>
      <use xlink:href="#STIXGeneral-Regular-6e" x="33.299988"/>
      <use xlink:href="#STIXGeneral-Regular-2d" x="83.299973"/>
      <use xlink:href="#STIXGeneral-Regular-54" x="116.59996"/>
      <use xlink:href="#STIXGeneral-Regular-6f" x="177.699951"/>
      <use xlink:href="#STIXGeneral-Regular-6f" x="227.699936"/>
      <use xlink:href="#STIXGeneral-Regular-6c" x="277.699921"/>
      <use xlink:href="#STIXGeneral-Regular-20" x="305.499908"/>
      <use xlink:href="#STIXGeneral-Regular-62" x="330.499893"/>
      <use xlink:href="#STIXGeneral-Regular-61" x="380.499878"/>
      <use xlink:href="#STIXGeneral-Regular-73" x="424.899872"/>
      <use xlink:href="#STIXGeneral-Regular-65" x="463.799866"/>
      <use xlink:href="#STIXGeneral-Regular-6c" x="508.19986"/>
      <use xlink:href="#STIXGeneral-Regular-69" x="535.999847"/>
      <use xlink:href="#STIXGeneral-Regular-6e" x="563.799835"/>
      <use xlink:href="#STIXGeneral-Regular-65" x="613.79982"/>
      <use xlink:href="#STIXGeneral-Regular-20" x="658.199814"/>
      <use xlink:href="#STIXGeneral-Regular-28" x="683.199799"/>
      <use xlink:href="#STIXGeneral-Regular-77" x="716.499786"/>
      <use xlink:href="#STIXGeneral-Regular-6f" x="788.699768"/>
      <use xlink:href="#STIXGeneral-Regular-72" x="838.699753"/>
      <use xlink:href="#STIXGeneral-Regular-73" x="871.999741"/>
      <use xlink:href="#STIXGeneral-Regular-74" x="910.899734"/>
      <use xlink:href="#STIXGeneral-Regular-29" x="938.699722"/>
     </g>
    </g>
   </g>
   <g id="legend_2">
    <g id="line2d_51">
     <path d="M 42.355231 20.253196 
L 47.295231 20.253196 
L 52.235231 20.253196 
" style="fill: none; stroke: #2a788e; stroke-width: 1.5; stroke-linecap: square"/>
     <g>
      <use xlink:href="#meef389f7f4" x="47.295231" y="20.253196" style="fill: #2a788e; stroke: #2a788e"/>
     </g>
    </g>
    <g id="text_18">
     <!-- 1B -->
     <g transform="translate(54.135231 22.913196) scale(0.076 -0.076)">
      <defs>
       <path id="STIXGeneral-Regular-42" d="M 2701 2234 
L 2701 2227 
Q 3181 2150 3482 1875 
Q 3795 1594 3795 1139 
Q 3795 608 3379 304 
Q 2963 0 2266 0 
L 109 0 
L 109 122 
Q 486 134 604 246 
Q 723 358 723 723 
L 723 3520 
Q 723 3891 614 3990 
Q 506 4090 109 4115 
L 109 4237 
L 1901 4237 
Q 2726 4237 3152 3958 
Q 3578 3680 3578 3168 
Q 3578 2733 3315 2502 
Q 3130 2342 2701 2234 
z
M 1376 2342 
L 1965 2342 
Q 2925 2342 2925 3136 
Q 2925 3546 2640 3773 
Q 2355 4000 1792 4000 
L 1530 4000 
Q 1376 4000 1376 3795 
L 1376 2342 
z
M 1376 2086 
L 1376 525 
Q 1376 365 1462 301 
Q 1549 237 1773 237 
Q 2208 237 2413 285 
Q 2618 333 2816 512 
Q 3059 723 3059 1146 
Q 3059 1632 2758 1830 
Q 2688 1882 2617 1917 
Q 2547 1952 2492 1974 
Q 2438 1997 2348 2016 
Q 2259 2035 2211 2044 
Q 2163 2054 2041 2060 
Q 1920 2067 1862 2070 
Q 1805 2074 1635 2080 
Q 1466 2086 1376 2086 
z
" transform="scale(0.015625)"/>
      </defs>
      <use xlink:href="#STIXGeneral-Regular-31"/>
      <use xlink:href="#STIXGeneral-Regular-42" x="49.999985"/>
     </g>
    </g>
    <g id="line2d_52">
     <path d="M 69.084669 20.253196 
L 74.024669 20.253196 
L 78.964669 20.253196 
" style="fill: none; stroke: #440154; stroke-width: 1.5; stroke-linecap: square"/>
     <g>
      <use xlink:href="#meed3d2953b" x="74.024669" y="20.253196" style="fill: #440154; stroke: #440154"/>
     </g>
    </g>
    <g id="text_19">
     <!-- 3B -->
     <g transform="translate(80.864669 22.913196) scale(0.076 -0.076)">
      <defs>
       <path id="STIXGeneral-Regular-33" d="M 390 3264 
L 288 3290 
Q 435 3770 748 4048 
Q 1062 4326 1542 4326 
Q 1990 4326 2265 4083 
Q 2541 3840 2541 3450 
Q 2541 2925 1946 2566 
Q 2298 2413 2477 2227 
Q 2758 1914 2758 1402 
Q 2758 890 2464 506 
Q 2246 211 1840 60 
Q 1434 -90 979 -90 
Q 262 -90 262 275 
Q 262 378 339 442 
Q 416 506 525 506 
Q 685 506 915 339 
Q 1197 141 1466 141 
Q 1818 141 2058 425 
Q 2298 710 2298 1120 
Q 2298 1856 1632 2048 
Q 1434 2112 979 2112 
L 979 2202 
Q 1338 2323 1517 2432 
Q 2035 2726 2035 3290 
Q 2035 3610 1852 3776 
Q 1670 3942 1344 3942 
Q 768 3942 390 3264 
z
" transform="scale(0.015625)"/>
      </defs>
      <use xlink:href="#STIXGeneral-Regular-33"/>
      <use xlink:href="#STIXGeneral-Regular-42" x="49.999985"/>
     </g>
    </g>
    <g id="line2d_53">
     <path d="M 95.814106 20.253196 
L 100.754106 20.253196 
L 105.694106 20.253196 
" style="fill: none; stroke: #270031; stroke-width: 1.5; stroke-linecap: square"/>
     <g>
      <use xlink:href="#m54a17c8ce5" x="100.754106" y="20.253196" style="fill: #270031; stroke: #270031"/>
     </g>
    </g>
    <g id="text_20">
     <!-- 8B      -->
     <g transform="translate(107.594106 22.913196) scale(0.076 -0.076)">
      <use xlink:href="#STIXGeneral-Regular-38"/>
      <use xlink:href="#STIXGeneral-Regular-42" x="49.999985"/>
      <use xlink:href="#STIXGeneral-Regular-20" x="116.699982"/>
      <use xlink:href="#STIXGeneral-Regular-20" x="141.699966"/>
      <use xlink:href="#STIXGeneral-Regular-20" x="166.699951"/>
      <use xlink:href="#STIXGeneral-Regular-20" x="191.699936"/>
      <use xlink:href="#STIXGeneral-Regular-20" x="216.699921"/>
     </g>
    </g>
    <g id="line2d_54">
     <path d="M 132.043544 20.253196 
L 136.983544 20.253196 
L 141.923544 20.253196 
" style="fill: none; stroke: #7ad151; stroke-width: 1.5; stroke-linecap: square"/>
     <g>
      <use xlink:href="#m51b3c78e7d" x="136.983544" y="20.253196" style="fill: #7ad151; stroke: #7ad151; stroke-linejoin: miter"/>
     </g>
    </g>
    <g id="text_21">
     <!-- 135M -->
     <g transform="translate(143.823544 22.913196) scale(0.076 -0.076)">
      <use xlink:href="#STIXGeneral-Regular-31"/>
      <use xlink:href="#STIXGeneral-Regular-33" x="49.999985"/>
      <use xlink:href="#STIXGeneral-Regular-35" x="99.999969"/>
      <use xlink:href="#STIXGeneral-Regular-4d" x="149.999954"/>
     </g>
    </g>
    <g id="line2d_55">
     <path d="M 168.060419 20.253196 
L 173.000419 20.253196 
L 177.940419 20.253196 
" style="fill: none; stroke: #22a884; stroke-width: 1.5; stroke-linecap: square"/>
     <g>
      <use xlink:href="#m1c1d906573" x="173.000419" y="20.253196" style="fill: #22a884; stroke: #22a884; stroke-linejoin: miter"/>
     </g>
    </g>
    <g id="text_22">
     <!-- 360M -->
     <g transform="translate(179.840419 22.913196) scale(0.076 -0.076)">
      <use xlink:href="#STIXGeneral-Regular-33"/>
      <use xlink:href="#STIXGeneral-Regular-36" x="49.999985"/>
      <use xlink:href="#STIXGeneral-Regular-30" x="99.999969"/>
      <use xlink:href="#STIXGeneral-Regular-4d" x="149.999954"/>
     </g>
    </g>
    <g id="line2d_56">
     <path d="M 204.077294 20.253196 
L 209.017294 20.253196 
L 213.957294 20.253196 
" style="fill: none; stroke: #414487; stroke-width: 1.5; stroke-linecap: square"/>
     <g>
      <use xlink:href="#mee5ff213a8" x="209.017294" y="20.253196" style="fill: #414487; stroke: #414487; stroke-linejoin: miter"/>
     </g>
    </g>
    <g id="text_23">
     <!-- 1.7B -->
     <g transform="translate(215.857294 22.913196) scale(0.076 -0.076)">
      <defs>
       <path id="STIXGeneral-Regular-37" d="M 2874 4134 
L 1517 -51 
L 1101 -51 
L 2368 3763 
L 992 3763 
Q 717 3763 582 3667 
Q 448 3571 243 3238 
L 128 3296 
L 512 4237 
L 2874 4237 
L 2874 4134 
z
" transform="scale(0.015625)"/>
      </defs>
      <use xlink:href="#STIXGeneral-Regular-31"/>
      <use xlink:href="#STIXGeneral-Regular-2e" x="49.999985"/>
      <use xlink:href="#STIXGeneral-Regular-37" x="74.999969"/>
      <use xlink:href="#STIXGeneral-Regular-42" x="124.999954"/>
     </g>
    </g>
   </g>
   <g id="legend_3">
    <g id="line2d_57">
     <path d="M 42.355231 20.253196 
L 47.295231 20.253196 
L 52.235231 20.253196 
" style="fill: none; stroke: #2a788e; stroke-width: 1.5; stroke-linecap: square"/>
     <g>
      <use xlink:href="#meef389f7f4" x="47.295231" y="20.253196" style="fill: #2a788e; stroke: #2a788e"/>
     </g>
    </g>
    <g id="text_24">
     <!-- 1B -->
     <g transform="translate(54.135231 22.913196) scale(0.076 -0.076)">
      <use xlink:href="#STIXGeneral-Regular-31"/>
      <use xlink:href="#STIXGeneral-Regular-42" x="49.999985"/>
     </g>
    </g>
    <g id="line2d_58">
     <path d="M 69.084669 20.253196 
L 74.024669 20.253196 
L 78.964669 20.253196 
" style="fill: none; stroke: #440154; stroke-width: 1.5; stroke-linecap: square"/>
     <g>
      <use xlink:href="#meed3d2953b" x="74.024669" y="20.253196" style="fill: #440154; stroke: #440154"/>
     </g>
    </g>
    <g id="text_25">
     <!-- 3B -->
     <g transform="translate(80.864669 22.913196) scale(0.076 -0.076)">
      <use xlink:href="#STIXGeneral-Regular-33"/>
      <use xlink:href="#STIXGeneral-Regular-42" x="49.999985"/>
     </g>
    </g>
    <g id="line2d_59">
     <path d="M 95.814106 20.253196 
L 100.754106 20.253196 
L 105.694106 20.253196 
" style="fill: none; stroke: #270031; stroke-width: 1.5; stroke-linecap: square"/>
     <g>
      <use xlink:href="#m54a17c8ce5" x="100.754106" y="20.253196" style="fill: #270031; stroke: #270031"/>
     </g>
    </g>
    <g id="text_26">
     <!-- 8B      -->
     <g transform="translate(107.594106 22.913196) scale(0.076 -0.076)">
      <use xlink:href="#STIXGeneral-Regular-38"/>
      <use xlink:href="#STIXGeneral-Regular-42" x="49.999985"/>
      <use xlink:href="#STIXGeneral-Regular-20" x="116.699982"/>
      <use xlink:href="#STIXGeneral-Regular-20" x="141.699966"/>
      <use xlink:href="#STIXGeneral-Regular-20" x="166.699951"/>
      <use xlink:href="#STIXGeneral-Regular-20" x="191.699936"/>
      <use xlink:href="#STIXGeneral-Regular-20" x="216.699921"/>
     </g>
    </g>
    <g id="line2d_60">
     <path d="M 132.043544 20.253196 
L 136.983544 20.253196 
L 141.923544 20.253196 
" style="fill: none; stroke: #7ad151; stroke-width: 1.5; stroke-linecap: square"/>
     <g>
      <use xlink:href="#m51b3c78e7d" x="136.983544" y="20.253196" style="fill: #7ad151; stroke: #7ad151; stroke-linejoin: miter"/>
     </g>
    </g>
    <g id="text_27">
     <!-- 135M -->
     <g transform="translate(143.823544 22.913196) scale(0.076 -0.076)">
      <use xlink:href="#STIXGeneral-Regular-31"/>
      <use xlink:href="#STIXGeneral-Regular-33" x="49.999985"/>
      <use xlink:href="#STIXGeneral-Regular-35" x="99.999969"/>
      <use xlink:href="#STIXGeneral-Regular-4d" x="149.999954"/>
     </g>
    </g>
    <g id="line2d_61">
     <path d="M 168.060419 20.253196 
L 173.000419 20.253196 
L 177.940419 20.253196 
" style="fill: none; stroke: #22a884; stroke-width: 1.5; stroke-linecap: square"/>
     <g>
      <use xlink:href="#m1c1d906573" x="173.000419" y="20.253196" style="fill: #22a884; stroke: #22a884; stroke-linejoin: miter"/>
     </g>
    </g>
    <g id="text_28">
     <!-- 360M -->
     <g transform="translate(179.840419 22.913196) scale(0.076 -0.076)">
      <use xlink:href="#STIXGeneral-Regular-33"/>
      <use xlink:href="#STIXGeneral-Regular-36" x="49.999985"/>
      <use xlink:href="#STIXGeneral-Regular-30" x="99.999969"/>
      <use xlink:href="#STIXGeneral-Regular-4d" x="149.999954"/>
     </g>
    </g>
    <g id="line2d_62">
     <path d="M 204.077294 20.253196 
L 209.017294 20.253196 
L 213.957294 20.253196 
" style="fill: none; stroke: #414487; stroke-width: 1.5; stroke-linecap: square"/>
     <g>
      <use xlink:href="#mee5ff213a8" x="209.017294" y="20.253196" style="fill: #414487; stroke: #414487; stroke-linejoin: miter"/>
     </g>
    </g>
    <g id="text_29">
     <!-- 1.7B -->
     <g transform="translate(215.857294 22.913196) scale(0.076 -0.076)">
      <use xlink:href="#STIXGeneral-Regular-31"/>
      <use xlink:href="#STIXGeneral-Regular-2e" x="49.999985"/>
      <use xlink:href="#STIXGeneral-Regular-37" x="74.999969"/>
      <use xlink:href="#STIXGeneral-Regular-42" x="124.999954"/>
     </g>
    </g>
   </g>
  </g>
 </g>
 <defs>
  <clipPath id="p732cf96f75">
   <rect x="37.55" y="28.187005" width="199.67875" height="119.409654"/>
  </clipPath>
 </defs>
</svg>
